<svg xmlns="http://www.w3.org/2000/svg" viewBox="0 0 24 24" fill="none" stroke="url(#gradient)" stroke-width="1.5" stroke-linecap="round" stroke-linejoin="round">
  <defs>
    <linearGradient id="gradient" x1="0%" y1="0%" x2="100%" y2="100%">
      <stop offset="0%" stop-color="#9945FF" />
      <stop offset="100%" stop-color="#14F195" />
    </linearGradient>
  </defs>
  <path d="M12 15c2.21 0 4-1.79 4-4 0-2.21-1.79-4-4-4-2.21 0-4 1.79-4 4 0 2.21 1.79 4 4 4z" />
  <path d="M8.5 19.5c0-1.9 1.6-3.5 3.5-3.5 1.9 0 3.5 1.6 3.5 3.5" />
  <path d="M17 8l5-3-5-3v6z" />
  <path d="M7 8L2 5l5-3v6z" />
  <path d="M12 22v-3" />
  <path d="M12 7V3" />
</svg> 